<?xml version="1.0" standalone="no"?><!DOCTYPE svg PUBLIC "-//W3C//DTD SVG 1.1//EN" "http://www.w3.org/Graphics/SVG/1.1/DTD/svg11.dtd"><svg t="1693273286167" class="icon" viewBox="0 0 1024 1024" version="1.1" xmlns="http://www.w3.org/2000/svg" p-id="1565" xmlns:xlink="http://www.w3.org/1999/xlink" width="200" height="200"><path d="M413.176269 465.803975c-11.240795 0-20.516425-10.341633-20.516425-22.517251 0-12.226562 9.27563-22.00399 20.516425-22.00399H712.502873c11.736225 0 20.786428 9.779976 20.786428 22.00399 0 12.175618-9.050203 22.517251-20.786428 22.517251H413.176269z m-102.695475 255.850989c18.594562 0 34.239467 16.429442 34.239467 37.112708 0 20.389065-15.641084 37.600498-34.239467 37.600498-19.070889 0-34.711972-17.211433-34.711972-37.600498 0-20.683267 15.641084-37.112709 34.711972-37.112708z m0-158.13147c18.594562 0 34.239467 17.211433 34.239467 37.62597 0 20.659068-15.641084 37.331768-34.239467 37.331768-19.070889 0-34.711972-16.6727-34.711972-37.331768 0-20.414537 15.641084-37.62597 34.711972-37.62597z m0-157.32528c18.594562 0 34.239467 16.673973 34.239467 37.08851 0 20.632323-15.641084 37.333041-34.239467 37.333042-19.070889 0-34.711972-16.698172-34.711972-37.333042 0-20.414537 15.641084-37.08851 34.711972-37.08851zM511.988538 14.952066c37.647621 0 71.38911 16.136514 96.330021 42.906316a150.030099 150.030099 0 0 1 35.705381 69.139931h110.548494c11.239521 0 20.516425 10.07163 20.516424 22.515978v20.122882h94.883212c19.072162 0 34.259844 16.966901 34.259845 37.35724v764.717932c0 20.122883-15.190229 37.355966-34.259845 37.355967H154.453312c-19.072162 0-34.713246-17.235631-34.713246-37.355967V206.994413c0-20.390339 15.641084-37.35724 34.713246-37.35724h94.883212v-20.122882c0-12.444347 9.073128-22.515977 20.312649-22.515978H380.424368a148.482675 148.482675 0 0 1 35.930807-69.139931c24.467133-26.771075 58.458247-42.906316 95.630815-42.906316z m88.994084 112.046247a104.393184 104.393184 0 0 0-22.005263-37.333041 89.927634 89.927634 0 0 0-133.525515 0 105.363668 105.363668 0 0 0-22.006537 37.333041h177.539863z m174.10751 117.865327v20.122883c0 12.444347-9.276904 22.78598-20.516425 22.78598H269.65172c-11.239521 0-20.312649-10.341633-20.312649-22.78598v-20.122883h-60.399214v689.491466H835.736424V244.86364h-60.646292z m-263.101594-73.104649h-221.542748v70.468297h443.594935v-70.463203h-222.052187z m-98.812269 609.519564c-11.240795 0-20.516425-9.827099-20.516425-22.515977 0-12.199816 9.27563-22.542723 20.516425-22.542723H712.502873c11.736225 0 20.786428 10.341633 20.786428 22.542723 0 12.688878-9.050203 22.515977-20.786428 22.515977H413.176269z m0-158.131469c-11.240795 0-20.516425-9.552001-20.516425-22.002716s9.27563-22.517251 20.516425-22.517251H712.502873c11.736225 0 20.786428 10.072904 20.786428 22.517251s-9.050203 22.002716-20.786428 22.002716H413.176269z" p-id="1566"></path></svg>