<?xml version="1.0" standalone="no"?><!DOCTYPE svg PUBLIC "-//W3C//DTD SVG 1.1//EN" "http://www.w3.org/Graphics/SVG/1.1/DTD/svg11.dtd"><svg t="1693223552813" class="icon" viewBox="0 0 1024 1024" version="1.1" xmlns="http://www.w3.org/2000/svg" p-id="1033" xmlns:xlink="http://www.w3.org/1999/xlink" width="200" height="200"><path d="M184.32 118.784v786.432h655.36V118.784H184.32z m-32.768-65.536h720.896c9.556992 0 17.408 3.072 23.552 9.216s9.216 13.995008 9.216 23.552v851.968c0 9.556992-3.072 17.408-9.216 23.552s-13.995008 9.216-23.552 9.216H151.552c-9.556992 0-17.408-3.072-23.552-9.216s-9.216-13.995008-9.216-23.552V86.016c0-9.556992 3.072-17.408 9.216-23.552s13.995008-9.216 23.552-9.216z m163.84 458.752h393.216v65.536H315.392v-65.536z m0-196.608h196.608v65.536H315.392v-65.536z m0 393.216h393.216v65.536H315.392v-65.536z" p-id="1034"></path></svg>