<?xml version="1.0" standalone="no"?><!DOCTYPE svg PUBLIC "-//W3C//DTD SVG 1.1//EN" "http://www.w3.org/Graphics/SVG/1.1/DTD/svg11.dtd"><svg t="1693273291045" class="icon" viewBox="0 0 1027 1024" version="1.1" xmlns="http://www.w3.org/2000/svg" p-id="1711" xmlns:xlink="http://www.w3.org/1999/xlink" width="200.5859375" height="200"><path d="M782.583 722.454c49.762 0 89.158-39.396 89.158-89.158s-39.396-89.158-89.158-89.158-89.158 39.396-89.158 89.158 39.396 89.158 89.158 89.158zM753.555 602.194l60.129 0 0 60.129-60.129 0 0-60.129zM722.454 272.518l0-240.518-570.194 0c-33.175 0-62.203 14.514-85.011 37.322l-8.294 8.294c-16.587 20.735-26.955 47.689-26.955 74.644l0 60.129c0 4.147 0 10.367 2.074 14.514 0 4.147-2.074 10.367-2.074 14.514l0 630.324c0 66.35 53.909 120.259 120.259 120.259l721.555 0c66.35 0 120.259-53.909 120.259-120.259l0-601.296-271.62 0zM92.129 152.259c0-33.175 26.955-60.129 60.129-60.129l510.065 0 0 180.389-510.065 0c-4.147 0-8.294 0-12.441-2.074-2.074 0-2.074 0-4.147-2.074-2.074 0-4.147-2.074-6.22-2.074-2.074 0-2.074-2.074-4.147-2.074-2.074 0-4.147-2.074-6.22-2.074-2.074 0-2.074-2.074-4.147-4.147-2.074 0-2.074-2.074-4.147-2.074-2.074-2.074-4.147-2.074-4.147-4.147 0 0-2.074-2.074-2.074-2.074-2.074-2.074-4.147-4.147-4.147-6.22 0 0 0 0 0-2.074-2.074-6.22-6.22-12.441-6.22-18.661l0-2.074c0-2.074 0-6.22 0-8.294l0-60.129zM933.943 753.555l-240.518 0c-33.175 0-60.129-26.955-60.129-60.129l0-120.259c0-33.175 26.955-60.129 60.129-60.129l240.518 0 0 240.518zM933.943 452.908l-240.518 0c-66.35 0-120.259 53.909-120.259 120.259l0 120.259c0 66.35 53.909 120.259 120.259 120.259l240.518 0 0 60.129c0 33.175-26.955 60.129-60.129 60.129l-721.555 0c-33.175 0-60.129-26.955-60.129-60.129l0-557.753c4.147 2.074 8.294 4.147 12.441 6.22 0 0 0 0 0 0 6.22 2.074 12.441 4.147 20.735 6.22 2.074 0 4.147 0 4.147 0 6.22 2.074 14.514 2.074 20.735 2.074l779.611 0 0 122.333z" p-id="1712"></path></svg>